<svg width="40" height="40" viewBox="0 0 40 40" fill="none" xmlns="http://www.w3.org/2000/svg">
<path d="M9.68751 17.2461C9.85678 17.2461 10.0456 17.2721 10.2539 17.3242C10.4623 17.3763 10.6706 17.4479 10.8789 17.5391C11.0873 17.6302 11.2956 17.7148 11.5039 17.793C11.7123 17.8711 11.9011 17.9492 12.0703 18.0273L11.7578 18.0664C11.6537 18.0794 11.543 18.0859 11.4258 18.0859C11.2044 18.0859 11.0026 18.0534 10.8203 17.9883C10.638 17.9232 10.4688 17.8385 10.3125 17.7344C10.1563 17.6302 10 17.5521 9.84376 17.5C9.68751 17.4479 9.54428 17.4089 9.41407 17.3828C9.28387 17.3828 9.16668 17.4089 9.06251 17.4609C8.95835 17.513 8.85418 17.5716 8.75001 17.6367C8.75001 17.5846 8.70444 17.5586 8.61329 17.5586C8.70444 17.4674 8.87371 17.3958 9.12111 17.3437C9.3685 17.2917 9.5573 17.2591 9.68751 17.2461ZM12.3242 18.125C12.8581 18.125 13.3464 18.2161 13.7891 18.3984C13.6068 18.4635 13.4245 18.5156 13.2422 18.5547C13.0599 18.5937 12.8711 18.6198 12.6758 18.6328C12.4154 18.6328 12.181 18.6068 11.9727 18.5547C12.0378 18.4505 12.1029 18.3854 12.168 18.3594C12.2331 18.3333 12.2852 18.2552 12.3242 18.125ZM20 -2.73873e-06C21.8359 -2.73873e-06 23.6003 0.240883 25.293 0.722654C26.9857 1.20442 28.5742 1.875 30.0586 2.73437C31.543 3.59375 32.8971 4.64192 34.1211 5.8789C35.3451 7.11588 36.3867 8.46354 37.2461 9.92187C38.1055 11.3802 38.7826 12.9687 39.2774 14.6875C39.7721 16.4062 40.013 18.1771 40 20C40 21.8359 39.7591 23.6003 39.2774 25.293C38.7956 26.9857 38.125 28.5742 37.2656 30.0586C36.4063 31.543 35.3581 32.8971 34.1211 34.1211C32.8841 35.3451 31.5365 36.3867 30.0781 37.2461C28.6198 38.1055 27.0313 38.7826 25.3125 39.2773C23.5938 39.7721 21.8229 40.013 20 40C18.1641 40 16.3998 39.7591 14.707 39.2773C13.0143 38.7956 11.4258 38.125 9.94142 37.2656C8.45704 36.4062 7.10288 35.3581 5.87892 34.1211C4.65496 32.8841 3.61329 31.5365 2.75392 30.0781C1.89454 28.6198 1.21746 27.0312 0.722669 25.3125C0.227877 23.5937 -0.0130083 21.8229 1.25201e-05 20C1.25201e-05 18.1641 0.240898 16.3997 0.722669 14.707C1.20444 13.0143 1.87501 11.4258 2.73439 9.9414C3.59376 8.45703 4.64194 7.10286 5.87892 5.8789C7.1159 4.65494 8.46355 3.61328 9.92189 2.7539C11.3802 1.89453 12.9688 1.21745 14.6875 0.722654C16.4063 0.227862 18.1771 -0.0130236 20 -2.73873e-06ZM34.8828 10.8398C34.7005 10.5534 34.5182 10.2799 34.3359 10.0195C34.1537 9.75911 33.9649 9.49218 33.7695 9.21875C33.7435 9.33593 33.7109 9.42057 33.6719 9.47265C33.6328 9.52474 33.6068 9.64192 33.5938 9.82422C33.5938 9.9414 33.6393 10.0521 33.7305 10.1562C33.8216 10.2604 33.9388 10.3646 34.082 10.4687C34.2253 10.5729 34.3685 10.651 34.5117 10.7031C34.655 10.7552 34.7787 10.8008 34.8828 10.8398ZM33.5352 8.92578C33.5352 9.02995 33.5156 9.10156 33.4766 9.14062H33.5938C33.6458 9.14062 33.6849 9.14713 33.7109 9.16015L33.5352 8.92578ZM20 37.5C21.4844 37.5 22.9362 37.3112 24.3555 36.9336C25.7748 36.556 27.1159 36.0221 28.3789 35.332C29.6419 34.6419 30.8138 33.7956 31.8945 32.793C32.9753 31.7904 33.9193 30.6706 34.7266 29.4336C34.5573 29.043 34.3945 28.6458 34.2383 28.2422C34.082 27.8385 34.0039 27.4219 34.0039 26.9922C34.0039 26.5234 34.0234 26.1458 34.0625 25.8594C34.1016 25.5729 34.1471 25.319 34.1992 25.0977C34.2513 24.8763 34.2774 24.6875 34.2774 24.5312C34.2774 24.375 34.2578 24.1732 34.2188 23.9258C34.1797 23.6784 34.069 23.4115 33.8867 23.125C33.7044 22.8385 33.4636 22.4349 33.1641 21.9141C33.1771 21.8229 33.1966 21.6992 33.2227 21.543C33.2487 21.3867 33.2748 21.224 33.3008 21.0547C33.3268 20.8854 33.3333 20.7292 33.3203 20.5859C33.3073 20.4427 33.2748 20.319 33.2227 20.2148C32.8841 20.1758 32.5326 20.1042 32.168 20C31.8034 19.8958 31.4779 19.7396 31.1914 19.5312L31.3086 19.4336C31.1393 19.4727 30.9701 19.5247 30.8008 19.5898C30.6315 19.6549 30.4688 19.7266 30.3125 19.8047C30.1563 19.8828 29.987 19.9349 29.8047 19.9609C29.6224 19.987 29.4466 20.013 29.2774 20.0391L28.9649 20L29.0234 19.8633C28.8412 19.9154 28.6458 19.9805 28.4375 20.0586C28.2292 20.1367 28.0274 20.1758 27.832 20.1758C27.7018 20.1758 27.513 20.1302 27.2656 20.0391C27.0182 19.9479 26.7708 19.8372 26.5234 19.707C26.2761 19.5768 26.0547 19.4336 25.8594 19.2773C25.6641 19.1211 25.5664 18.9714 25.5664 18.8281L25.6055 18.7695C25.5404 18.6914 25.4557 18.6198 25.3516 18.5547C25.2474 18.4896 25.1498 18.4245 25.0586 18.3594C24.9675 18.2943 24.8828 18.2227 24.8047 18.1445C24.7266 18.0664 24.694 17.9753 24.707 17.8711L24.9219 17.6953L24.4727 17.6367L24.3164 17.0508C24.3425 17.1159 24.4011 17.1419 24.4922 17.1289C24.5833 17.1159 24.655 17.0898 24.707 17.0508L24.0039 16.6797L24.4922 15.4297C24.3099 14.7526 24.2643 14.2318 24.3555 13.8672C24.4466 13.5026 24.6224 13.2031 24.8828 12.9687C25.1432 12.7344 25.4297 12.5 25.7422 12.2656C26.0547 12.0312 26.3737 11.7122 26.6992 11.3086L26.6406 11.0742L27.9297 9.51172L28.2227 9.47265C28.5873 9.47265 28.9974 9.45963 29.4531 9.43359C29.9089 9.40755 30.3711 9.36198 30.8399 9.29687C31.3086 9.23177 31.7708 9.16666 32.2266 9.10156C32.6823 9.03646 33.099 8.95182 33.4766 8.84765C33.0599 8.35286 32.6237 7.88411 32.168 7.4414C31.7123 6.99869 31.224 6.57552 30.7031 6.17187C30.5599 6.22396 30.3841 6.29557 30.1758 6.38672C29.9675 6.47786 29.7591 6.59505 29.5508 6.73828C29.3425 6.88151 29.1797 7.03776 29.0625 7.20703C28.9453 7.3763 28.8737 7.55208 28.8477 7.73437L28.9649 8.10547C28.7305 8.48307 28.4701 8.71745 28.1836 8.80859C27.8971 8.89974 27.6042 8.95182 27.3047 8.96484C27.0052 8.97786 26.6927 8.97786 26.3672 8.96484C26.0417 8.95182 25.7292 9.01041 25.4297 9.14062L25.1172 8.47656L25.4102 7.34375L25.0781 6.85547L28.457 5.80078C28.3138 5.43619 28.0794 5.16276 27.7539 4.98047C27.4284 4.79817 27.0703 4.70703 26.6797 4.70703V4.51172L27.7734 4.33593C26.5625 3.73698 25.306 3.28125 24.0039 2.96875C22.7018 2.65625 21.3672 2.5 20 2.5C18.8672 2.5 17.7474 2.61067 16.6406 2.83203C15.5339 3.05338 14.4662 3.37239 13.4375 3.78906C12.4089 4.20573 11.4128 4.72656 10.4492 5.35156C9.48569 5.97656 8.60678 6.67968 7.81251 7.46093C8.15105 7.46093 8.41147 7.54557 8.59376 7.71484C8.77605 7.88411 8.94532 8.07291 9.10157 8.28125C9.25782 8.48958 9.42059 8.67838 9.58986 8.84765C9.75913 9.01692 9.98699 9.10807 10.2734 9.12109L10.5859 8.88672L10.5469 8.45703L11.1914 7.53906L10.6836 6.09375C10.7487 6.05468 10.8464 5.98958 10.9766 5.89843C11.1068 5.80729 11.2175 5.76172 11.3086 5.76172C11.6992 5.76172 11.9987 5.78125 12.207 5.82031C12.4154 5.85937 12.5977 5.93099 12.7539 6.03515C12.9102 6.13932 13.0469 6.28906 13.1641 6.48437C13.2813 6.67968 13.4636 6.92708 13.7109 7.22656L14.4141 6.67968C14.5443 6.73177 14.7526 6.8164 15.0391 6.93359C15.3255 7.05078 15.6185 7.19401 15.918 7.36328C16.2175 7.53255 16.4714 7.70833 16.6797 7.89062C16.888 8.07291 16.9987 8.24218 17.0117 8.39843C17.0117 8.59375 16.9401 8.75 16.7969 8.86718C16.6537 8.98437 16.4649 9.08203 16.2305 9.16015C15.9961 9.23828 15.7552 9.29687 15.5078 9.33593C15.2604 9.375 15.013 9.42708 14.7656 9.49218C14.5182 9.55729 14.3294 9.62239 14.1992 9.6875C14.069 9.7526 13.9909 9.86328 13.9649 10.0195L15.0977 10.3906C14.8373 10.612 14.5573 10.8138 14.2578 10.9961C13.9583 11.1784 13.6458 11.3477 13.3203 11.5039L13.3984 11.8359L11.6016 12.5391V13.0859L11.4649 13.1445L11.5625 12.4609L11.4844 12.4414C11.3932 12.4414 11.3412 12.4609 11.3281 12.5C11.3151 12.5391 11.3086 12.5846 11.3086 12.6367C11.3086 12.6888 11.3216 12.7409 11.3477 12.793C11.3737 12.845 11.3802 12.8841 11.3672 12.9102L11.1133 12.7734L11.1524 12.8516C11.1524 12.8906 11.1719 12.9492 11.2109 13.0273C11.25 13.1055 11.3021 13.1771 11.3672 13.2422C11.4323 13.3073 11.4844 13.3724 11.5234 13.4375C11.5625 13.5026 11.5886 13.5352 11.6016 13.5352C11.6016 13.5742 11.5755 13.6133 11.5234 13.6523C11.4714 13.6914 11.4063 13.7174 11.3281 13.7305C11.25 13.7435 11.1979 13.763 11.1719 13.7891C11.1458 13.8151 11.1458 13.8216 11.1719 13.8086C11.3542 13.8086 11.3932 13.8216 11.2891 13.8477C11.1849 13.8737 11.0221 13.9388 10.8008 14.043C10.5794 14.1471 10.3776 14.2969 10.1953 14.4922C10.013 14.6875 9.90887 14.974 9.88282 15.3516C9.88282 15.5729 9.88934 15.7878 9.90236 15.9961C9.91538 16.2044 9.90887 16.4193 9.88282 16.6406C9.70053 16.1458 9.4271 15.7682 9.06251 15.5078C8.69793 15.2474 8.25522 15.1172 7.73439 15.1172L6.89454 15.1953L7.3047 15.4687C7.08335 15.4427 6.85548 15.4167 6.62111 15.3906C6.38673 15.3646 6.14585 15.3581 5.89845 15.3711C5.65105 15.3841 5.4297 15.4362 5.23439 15.5273C5.03907 15.6185 4.84376 15.7552 4.64845 15.9375L4.53126 16.8164C4.53126 17.2331 4.62241 17.5716 4.8047 17.832C4.98699 18.0924 5.306 18.2292 5.76173 18.2422C6.15236 18.2422 6.53647 18.1836 6.91407 18.0664C7.29168 17.9492 7.66277 17.8125 8.02736 17.6562C7.91017 17.9427 7.77996 18.2161 7.63673 18.4766C7.4935 18.737 7.38934 19.0234 7.32423 19.3359L7.57814 19.4531C7.89064 19.2448 8.1771 19.2122 8.43751 19.3555C8.69793 19.4987 8.95184 19.707 9.19923 19.9805C9.44663 20.2539 9.70053 20.5339 9.96095 20.8203C10.2214 21.1068 10.5013 21.3151 10.8008 21.4453L10.1367 21.7969L8.57423 20.918C8.58725 20.944 8.60027 21.0026 8.61329 21.0937C8.62631 21.1849 8.6198 21.2044 8.59376 21.1523L7.89064 19.9609C7.47397 19.9479 7.03126 19.8828 6.56251 19.7656C6.09376 19.6484 5.6185 19.4922 5.13673 19.2969C4.65496 19.1016 4.20574 18.8867 3.78907 18.6523C3.37241 18.418 2.98829 18.1706 2.63673 17.9102L2.50001 20C2.50001 21.5885 2.71486 23.138 3.14454 24.6484C3.57423 26.1589 4.1797 27.5781 4.96095 28.9062C5.7422 30.2344 6.69923 31.4453 7.83204 32.5391C8.96486 33.6328 10.2214 34.5638 11.6016 35.332C11.5365 35.0586 11.53 34.7852 11.582 34.5117C11.6341 34.2383 11.6992 33.9648 11.7774 33.6914C11.8555 33.418 11.9401 33.1445 12.0313 32.8711C12.1224 32.5977 12.168 32.3177 12.168 32.0312C12.168 31.6146 12.1029 31.1784 11.9727 30.7227C11.8425 30.2669 11.6862 29.8047 11.5039 29.3359C11.3216 28.8672 11.1198 28.4049 10.8984 27.9492C10.6771 27.4935 10.5013 27.0638 10.3711 26.6602C10.2409 26.2565 10.1367 25.8789 10.0586 25.5273C9.98048 25.1758 10.0195 24.8698 10.1758 24.6094L9.88282 24.4727C9.96095 24.2904 10.0651 24.1146 10.1953 23.9453C10.3255 23.776 10.4623 23.6068 10.6055 23.4375C10.7487 23.2682 10.8594 23.0859 10.9375 22.8906C11.0156 22.6953 11.0612 22.5 11.0742 22.3047C11.0742 22.1745 11.0482 22.0378 10.9961 21.8945C10.944 21.7513 10.8984 21.6146 10.8594 21.4844L11.2695 21.582C11.4909 21.0742 11.7904 20.7292 12.168 20.5469C12.5456 20.3646 13.0208 20.2669 13.5938 20.2539C13.6589 20.2539 13.7956 20.2799 14.0039 20.332C14.2123 20.3841 14.4336 20.4557 14.668 20.5469C14.9024 20.638 15.1237 20.7096 15.332 20.7617C15.5404 20.8138 15.6966 20.8659 15.8008 20.918C15.8008 21.0091 15.8529 21.0677 15.957 21.0937C16.0612 21.1198 16.1198 21.1654 16.1328 21.2305L16.0938 21.3867C16.1328 21.3997 16.224 21.4453 16.3672 21.5234C16.5104 21.6016 16.6667 21.6992 16.8359 21.8164C17.0052 21.9336 17.155 22.0378 17.2852 22.1289C17.4154 22.22 17.5065 22.2917 17.5586 22.3437C17.793 22.3437 18.112 22.4219 18.5156 22.5781C18.9193 22.7344 19.362 22.9297 19.8438 23.1641C20.3255 23.3984 20.8008 23.6784 21.2695 24.0039C21.7383 24.3294 22.181 24.6549 22.5977 24.9805C23.0143 25.306 23.3333 25.6315 23.5547 25.957C23.7761 26.2825 23.9063 26.569 23.9453 26.8164L23.2813 27.5195C23.3333 28.1836 23.2878 28.6914 23.1445 29.043C23.0013 29.3945 22.78 29.6875 22.4805 29.9219C22.181 30.1562 21.8359 30.3516 21.4453 30.5078C21.0547 30.6641 20.6315 30.8854 20.1758 31.1719C20.1758 31.4323 20.1107 31.7122 19.9805 32.0117C19.8503 32.3112 19.6875 32.5977 19.4922 32.8711C19.2969 33.1445 19.0625 33.3724 18.7891 33.5547C18.5156 33.737 18.2422 33.8281 17.9688 33.8281L17.1484 33.2031C17.1745 33.2292 17.1745 33.2747 17.1484 33.3398C17.1224 33.4049 17.0899 33.418 17.0508 33.3789C17.181 33.6263 17.2136 33.9128 17.1484 34.2383C17.0833 34.5638 16.9727 34.8958 16.8164 35.2344C16.6602 35.5729 16.4844 35.8919 16.2891 36.1914C16.0938 36.4909 15.918 36.7448 15.7617 36.9531C16.4649 37.1354 17.168 37.2721 17.8711 37.3633C18.5742 37.4544 19.2839 37.5 20 37.5Z" fill="#FF9A62"/>
</svg>
